<svg width="673.8950439453125px" height="137.1199981689453px" xmlns="http://www.w3.org/2000/svg" viewBox="-86.94752197265626 6.440000915527349 673.8950439453125 137.1199981689453" style="background: none;" preserveAspectRatio="xMidYMid"><defs><filter id="editing-hole" x="-100%" y="-100%" width="300%" height="300%"><feFlood flood-color="#0a0a0a" result="black"></feFlood><feMorphology operator="dilate" radius="2" in="SourceGraphic" result="erode"></feMorphology><feGaussianBlur in="erode" stdDeviation="4" result="blur"></feGaussianBlur><feOffset in="blur" dx="2" dy="2" result="offset"></feOffset><feComposite operator="atop" in="offset" in2="black" result="merge"></feComposite><feComposite operator="in" in="merge" in2="SourceGraphic" result="inner-shadow"></feComposite></filter></defs><g filter="url(#editing-hole)"><g transform="translate(9.600020408630371, 100.20500373840332)"><path d="M34.63 0L32.48 0L13.68-36.95L13.68 0L6.47 0L6.47-50.41L14.34-50.41L33.54-12.45L52.77-50.41L60.61-50.41L60.61 0L53.44 0L53.44-36.95L34.63 0ZM88.70-50.41L95.91-50.41L115.35 0L108.14 0L103.68-11.60L80.93-11.60L76.46 0L69.26 0L88.70-50.41ZM92.32-41.03L83.67-18.81L100.90-18.81L92.32-41.03ZM131.20-39.09L131.20 0L124.00 0L124.00-50.41L131.20-50.41L161.51-11.32L161.51-50.41L168.71-50.41L168.71 0L161.51 0L131.20-39.09ZM180.21-7.21L180.21-15.86L187.42-15.86L187.42-7.21L207.81-7.21L207.81-50.41L215.02-50.41L215.02-7.21L215.02-7.21Q215.02-5.73 214.44-4.41L214.44-4.41L214.44-4.41Q213.86-3.09 212.89-2.11L212.89-2.11L212.89-2.11Q211.92-1.13 210.60-0.56L210.60-0.56L210.60-0.56Q209.29 0 207.81 0L207.81 0L187.42 0L187.42 0Q185.94 0 184.62-0.56L184.62-0.56L184.62-0.56Q183.30-1.13 182.34-2.11L182.34-2.11L182.34-2.11Q181.37-3.09 180.79-4.41L180.79-4.41L180.79-4.41Q180.21-5.73 180.21-7.21L180.21-7.21ZM227.95-7.21L227.95-50.41L235.16-50.41L235.16-7.21L263.95-7.21L263.95-50.41L271.16-50.41L271.16-7.21L271.16-7.21Q271.16-5.73 270.60-4.41L270.60-4.41L270.60-4.41Q270.04-3.09 269.05-2.11L269.05-2.11L269.05-2.11Q268.07-1.13 266.75-0.56L266.75-0.56L266.75-0.56Q265.43 0 263.95 0L263.95 0L235.16 0L235.16 0Q233.68 0 232.37-0.56L232.37-0.56L232.37-0.56Q231.05-1.13 230.06-2.11L230.06-2.11L230.06-2.11Q229.08-3.09 228.52-4.41L228.52-4.41L228.52-4.41Q227.95-5.73 227.95-7.21L227.95-7.21ZM291.30-39.09L291.30 0L284.10 0L284.10-50.41L291.30-50.41L321.61-11.32L321.61-50.41L328.82-50.41L328.82 0L321.61 0L291.30-39.09ZM356.87-50.41L364.08-50.41L383.52 0L376.31 0L371.85-11.60L349.10-11.60L344.64 0L337.43 0L356.87-50.41ZM360.49-41.03L351.84-18.81L369.07-18.81L360.49-41.03ZM382.08-43.21L382.08-50.41L422.40-50.41L422.40-43.21L405.84-43.21L405.84 0L398.64 0L398.64-43.21L382.08-43.21ZM467.12-50.41L474.33-50.41L474.33 0L467.12 0L467.12-21.59L438.26-21.59L438.26 0L431.05 0L431.05-50.41L438.26-50.41L438.26-28.79L467.12-28.79L467.12-50.41Z" fill="#0a0a0a"></path></g></g><style>text {
  font-size: 64px;
  font-family: Arial Black;
  dominant-baseline: central;
  text-anchor: middle;
}</style></svg>